{
	"patcher" : 	{
		"fileversion" : 1,
		"appversion" : 		{
			"major" : 8,
			"minor" : 3,
			"revision" : 0,
			"architecture" : "x64",
			"modernui" : 1
		}
,
		"classnamespace" : "box",
		"rect" : [ 321.0, -921.0, 887.0, 774.0 ],
		"bglocked" : 0,
		"openinpresentation" : 0,
		"default_fontsize" : 12.0,
		"default_fontface" : 0,
		"default_fontname" : "Arial",
		"gridonopen" : 1,
		"gridsize" : [ 15.0, 15.0 ],
		"gridsnaponopen" : 1,
		"objectsnaponopen" : 1,
		"statusbarvisible" : 2,
		"toolbarvisible" : 1,
		"lefttoolbarpinned" : 0,
		"toptoolbarpinned" : 0,
		"righttoolbarpinned" : 0,
		"bottomtoolbarpinned" : 0,
		"toolbars_unpinned_last_save" : 0,
		"tallnewobj" : 0,
		"boxanimatetime" : 200,
		"enablehscroll" : 1,
		"enablevscroll" : 1,
		"devicewidth" : 0.0,
		"description" : "",
		"digest" : "",
		"tags" : "",
		"style" : "",
		"subpatcher_template" : "",
		"assistshowspatchername" : 0,
		"boxes" : [ 			{
				"box" : 				{
					"id" : "obj-18",
					"maxclass" : "newobj",
					"numinlets" : 2,
					"numoutlets" : 2,
					"outlettype" : [ "", "" ],
					"patching_rect" : [ 677.0, 119.5, 90.0, 22.0 ],
					"text" : "route midiChan"
				}

			}
, 			{
				"box" : 				{
					"id" : "obj-16",
					"maxclass" : "newobj",
					"numinlets" : 2,
					"numoutlets" : 2,
					"outlettype" : [ "bang", "" ],
					"patching_rect" : [ 642.0, 90.0, 54.0, 22.0 ],
					"text" : "sel done"
				}

			}
, 			{
				"box" : 				{
					"id" : "obj-15",
					"maxclass" : "newobj",
					"numinlets" : 1,
					"numoutlets" : 2,
					"outlettype" : [ "", "" ],
					"patching_rect" : [ 523.0, 59.0, 138.0, 22.0 ],
					"text" : "patcherargs @midiChan"
				}

			}
, 			{
				"box" : 				{
					"id" : "obj-13",
					"maxclass" : "message",
					"numinlets" : 2,
					"numoutlets" : 1,
					"outlettype" : [ "" ],
					"patching_rect" : [ 12.0, 2.0, 35.0, 22.0 ],
					"text" : "open"
				}

			}
, 			{
				"box" : 				{
					"id" : "obj-11",
					"maxclass" : "newobj",
					"numinlets" : 1,
					"numoutlets" : 1,
					"outlettype" : [ "" ],
					"patching_rect" : [ 12.0, 26.0, 51.0, 22.0 ],
					"text" : "pcontrol"
				}

			}
, 			{
				"box" : 				{
					"id" : "obj-50",
					"maxclass" : "newobj",
					"numinlets" : 2,
					"numoutlets" : 1,
					"outlettype" : [ "" ],
					"patching_rect" : [ 246.0, 119.5, 47.0, 22.0 ],
					"text" : "qlim 30"
				}

			}
, 			{
				"box" : 				{
					"id" : "obj-49",
					"maxclass" : "newobj",
					"numinlets" : 1,
					"numoutlets" : 4,
					"outlettype" : [ "int", "int", "int", "int" ],
					"patching_rect" : [ 246.0, 47.0, 93.0, 22.0 ],
					"saved_object_attributes" : 					{
						"hires" : 0
					}
,
					"text" : "nrpnin @hires 0"
				}

			}
, 			{
				"box" : 				{
					"id" : "obj-39",
					"maxclass" : "newobj",
					"numinlets" : 1,
					"numoutlets" : 1,
					"outlettype" : [ "" ],
					"patching_rect" : [ 246.0, 143.5, 151.0, 22.0 ],
					"text" : "prepend incomingFromEr1"
				}

			}
, 			{
				"box" : 				{
					"id" : "obj-38",
					"maxclass" : "newobj",
					"numinlets" : 2,
					"numoutlets" : 1,
					"outlettype" : [ "" ],
					"patching_rect" : [ 246.0, 71.0, 46.0, 22.0 ],
					"text" : "pack i i"
				}

			}
, 			{
				"box" : 				{
					"id" : "obj-35",
					"maxclass" : "newobj",
					"numinlets" : 1,
					"numoutlets" : 1,
					"outlettype" : [ "int" ],
					"patching_rect" : [ 246.0, 6.0, 40.0, 22.0 ],
					"text" : "midiin"
				}

			}
, 			{
				"box" : 				{
					"id" : "obj-33",
					"maxclass" : "newobj",
					"numinlets" : 1,
					"numoutlets" : 0,
					"patching_rect" : [ 12.0, 340.0, 47.0, 22.0 ],
					"text" : "midiout"
				}

			}
, 			{
				"box" : 				{
					"id" : "obj-30",
					"maxclass" : "newobj",
					"numinlets" : 1,
					"numoutlets" : 2,
					"outlettype" : [ "int", "int" ],
					"patching_rect" : [ 12.0, 227.0, 59.0, 22.0 ],
					"text" : "unpack i i"
				}

			}
, 			{
				"box" : 				{
					"id" : "obj-27",
					"maxclass" : "newobj",
					"numinlets" : 4,
					"numoutlets" : 1,
					"outlettype" : [ "int" ],
					"patching_rect" : [ 12.0, 274.0, 101.0, 22.0 ],
					"saved_object_attributes" : 					{
						"hires" : 0
					}
,
					"text" : "nrpnout @hires 0"
				}

			}
, 			{
				"box" : 				{
					"id" : "obj-4",
					"maxclass" : "message",
					"numinlets" : 2,
					"numoutlets" : 1,
					"outlettype" : [ "" ],
					"patching_rect" : [ 163.0, 90.0, 64.0, 22.0 ],
					"text" : "script start"
				}

			}
, 			{
				"box" : 				{
					"id" : "obj-29",
					"maxclass" : "newobj",
					"numinlets" : 9,
					"numoutlets" : 9,
					"outlettype" : [ "", "", "", "", "", "", "", "", "" ],
					"patching_rect" : [ 12.0, 180.0, 518.0, 22.0 ],
					"text" : "route nrpnOut updateUI playNote noiseBlast midiNoteNumbers sequencerOutput env noteValue"
				}

			}
, 			{
				"box" : 				{
					"bgmode" : 0,
					"border" : 0,
					"clickthrough" : 0,
					"enablehscroll" : 0,
					"enablevscroll" : 0,
					"id" : "obj-2",
					"lockeddragscroll" : 0,
					"lockedsize" : 0,
					"maxclass" : "bpatcher",
					"name" : "n4m.monitor.maxpat",
					"numinlets" : 1,
					"numoutlets" : 1,
					"offset" : [ 0.0, 0.0 ],
					"outlettype" : [ "bang" ],
					"patching_rect" : [ 102.0, 344.0, 400.0, 220.0 ],
					"viewvisibility" : 1
				}

			}
, 			{
				"box" : 				{
					"id" : "obj-1",
					"maxclass" : "newobj",
					"numinlets" : 1,
					"numoutlets" : 2,
					"outlettype" : [ "", "" ],
					"patching_rect" : [ 12.0, 135.0, 109.0, 22.0 ],
					"saved_object_attributes" : 					{
						"autostart" : 0,
						"defer" : 0,
						"node_bin_path" : "",
						"npm_bin_path" : "",
						"watch" : 0
					}
,
					"text" : "node.script main.js"
				}

			}
, 			{
				"box" : 				{
					"id" : "obj-46",
					"maxclass" : "newobj",
					"numinlets" : 1,
					"numoutlets" : 13,
					"outlettype" : [ "", "", "", "", "", "", "", "", "", "", "", "", "" ],
					"patcher" : 					{
						"fileversion" : 1,
						"appversion" : 						{
							"major" : 8,
							"minor" : 3,
							"revision" : 0,
							"architecture" : "x64",
							"modernui" : 1
						}
,
						"classnamespace" : "box",
						"rect" : [ 447.0, -825.0, 1093.0, 480.0 ],
						"bglocked" : 0,
						"openinpresentation" : 0,
						"default_fontsize" : 12.0,
						"default_fontface" : 0,
						"default_fontname" : "Arial",
						"gridonopen" : 1,
						"gridsize" : [ 15.0, 15.0 ],
						"gridsnaponopen" : 1,
						"objectsnaponopen" : 1,
						"statusbarvisible" : 2,
						"toolbarvisible" : 1,
						"lefttoolbarpinned" : 0,
						"toptoolbarpinned" : 0,
						"righttoolbarpinned" : 0,
						"bottomtoolbarpinned" : 0,
						"toolbars_unpinned_last_save" : 0,
						"tallnewobj" : 0,
						"boxanimatetime" : 200,
						"enablehscroll" : 1,
						"enablevscroll" : 1,
						"devicewidth" : 0.0,
						"description" : "",
						"digest" : "",
						"tags" : "",
						"style" : "",
						"subpatcher_template" : "",
						"assistshowspatchername" : 0,
						"boxes" : [ 							{
								"box" : 								{
									"comment" : "",
									"id" : "obj-16",
									"index" : 13,
									"maxclass" : "outlet",
									"numinlets" : 1,
									"numoutlets" : 0,
									"patching_rect" : [ 773.0, 264.5, 30.0, 30.0 ]
								}

							}
, 							{
								"box" : 								{
									"comment" : "",
									"id" : "obj-13",
									"index" : 12,
									"maxclass" : "outlet",
									"numinlets" : 1,
									"numoutlets" : 0,
									"patching_rect" : [ 704.5, 264.5, 30.0, 30.0 ]
								}

							}
, 							{
								"box" : 								{
									"comment" : "",
									"id" : "obj-12",
									"index" : 11,
									"maxclass" : "outlet",
									"numinlets" : 1,
									"numoutlets" : 0,
									"patching_rect" : [ 645.0, 264.5, 30.0, 30.0 ]
								}

							}
, 							{
								"box" : 								{
									"comment" : "",
									"id" : "obj-11",
									"index" : 10,
									"maxclass" : "outlet",
									"numinlets" : 1,
									"numoutlets" : 0,
									"patching_rect" : [ 585.5, 264.5, 30.0, 30.0 ]
								}

							}
, 							{
								"box" : 								{
									"comment" : "",
									"id" : "obj-10",
									"index" : 9,
									"maxclass" : "outlet",
									"numinlets" : 1,
									"numoutlets" : 0,
									"patching_rect" : [ 526.0, 264.5, 30.0, 30.0 ]
								}

							}
, 							{
								"box" : 								{
									"comment" : "",
									"id" : "obj-9",
									"index" : 8,
									"maxclass" : "outlet",
									"numinlets" : 1,
									"numoutlets" : 0,
									"patching_rect" : [ 466.5, 264.5, 30.0, 30.0 ]
								}

							}
, 							{
								"box" : 								{
									"comment" : "",
									"id" : "obj-8",
									"index" : 7,
									"maxclass" : "outlet",
									"numinlets" : 1,
									"numoutlets" : 0,
									"patching_rect" : [ 407.0, 264.5, 30.0, 30.0 ]
								}

							}
, 							{
								"box" : 								{
									"comment" : "",
									"id" : "obj-7",
									"index" : 6,
									"maxclass" : "outlet",
									"numinlets" : 1,
									"numoutlets" : 0,
									"patching_rect" : [ 347.5, 264.5, 30.0, 30.0 ]
								}

							}
, 							{
								"box" : 								{
									"comment" : "",
									"id" : "obj-6",
									"index" : 5,
									"maxclass" : "outlet",
									"numinlets" : 1,
									"numoutlets" : 0,
									"patching_rect" : [ 288.0, 264.5, 30.0, 30.0 ]
								}

							}
, 							{
								"box" : 								{
									"comment" : "",
									"id" : "obj-5",
									"index" : 4,
									"maxclass" : "outlet",
									"numinlets" : 1,
									"numoutlets" : 0,
									"patching_rect" : [ 228.5, 264.5, 30.0, 30.0 ]
								}

							}
, 							{
								"box" : 								{
									"comment" : "",
									"id" : "obj-4",
									"index" : 3,
									"maxclass" : "outlet",
									"numinlets" : 1,
									"numoutlets" : 0,
									"patching_rect" : [ 169.0, 264.5, 30.0, 30.0 ]
								}

							}
, 							{
								"box" : 								{
									"comment" : "",
									"id" : "obj-3",
									"index" : 2,
									"maxclass" : "outlet",
									"numinlets" : 1,
									"numoutlets" : 0,
									"patching_rect" : [ 109.5, 264.5, 30.0, 30.0 ]
								}

							}
, 							{
								"box" : 								{
									"id" : "obj-43",
									"maxclass" : "newobj",
									"numinlets" : 14,
									"numoutlets" : 14,
									"outlettype" : [ "", "", "", "", "", "", "", "", "", "", "", "", "", "" ],
									"patching_rect" : [ 50.0, 100.0, 491.0, 22.0 ],
									"text" : "route vco1 vco2 vco3 vco4 hhClose hhOpen crash clap audioIn1 audioIn2 global mute solo"
								}

							}
, 							{
								"box" : 								{
									"comment" : "",
									"id" : "obj-44",
									"index" : 1,
									"maxclass" : "inlet",
									"numinlets" : 0,
									"numoutlets" : 1,
									"outlettype" : [ "" ],
									"patching_rect" : [ 50.0, 40.0, 30.0, 30.0 ]
								}

							}
, 							{
								"box" : 								{
									"comment" : "",
									"id" : "obj-45",
									"index" : 1,
									"maxclass" : "outlet",
									"numinlets" : 1,
									"numoutlets" : 0,
									"patching_rect" : [ 50.0, 264.5, 30.0, 30.0 ]
								}

							}
 ],
						"lines" : [ 							{
								"patchline" : 								{
									"destination" : [ "obj-10", 0 ],
									"source" : [ "obj-43", 8 ]
								}

							}
, 							{
								"patchline" : 								{
									"destination" : [ "obj-11", 0 ],
									"source" : [ "obj-43", 9 ]
								}

							}
, 							{
								"patchline" : 								{
									"destination" : [ "obj-12", 0 ],
									"source" : [ "obj-43", 10 ]
								}

							}
, 							{
								"patchline" : 								{
									"destination" : [ "obj-13", 0 ],
									"source" : [ "obj-43", 11 ]
								}

							}
, 							{
								"patchline" : 								{
									"destination" : [ "obj-16", 0 ],
									"source" : [ "obj-43", 12 ]
								}

							}
, 							{
								"patchline" : 								{
									"destination" : [ "obj-3", 0 ],
									"source" : [ "obj-43", 1 ]
								}

							}
, 							{
								"patchline" : 								{
									"destination" : [ "obj-4", 0 ],
									"source" : [ "obj-43", 2 ]
								}

							}
, 							{
								"patchline" : 								{
									"destination" : [ "obj-45", 0 ],
									"source" : [ "obj-43", 0 ]
								}

							}
, 							{
								"patchline" : 								{
									"destination" : [ "obj-5", 0 ],
									"source" : [ "obj-43", 3 ]
								}

							}
, 							{
								"patchline" : 								{
									"destination" : [ "obj-6", 0 ],
									"source" : [ "obj-43", 4 ]
								}

							}
, 							{
								"patchline" : 								{
									"destination" : [ "obj-7", 0 ],
									"source" : [ "obj-43", 5 ]
								}

							}
, 							{
								"patchline" : 								{
									"destination" : [ "obj-8", 0 ],
									"source" : [ "obj-43", 6 ]
								}

							}
, 							{
								"patchline" : 								{
									"destination" : [ "obj-9", 0 ],
									"source" : [ "obj-43", 7 ]
								}

							}
, 							{
								"patchline" : 								{
									"destination" : [ "obj-43", 0 ],
									"source" : [ "obj-44", 0 ]
								}

							}
 ]
					}
,
					"patching_rect" : [ 12.0, 59.0, 121.0, 22.0 ],
					"saved_object_attributes" : 					{
						"description" : "",
						"digest" : "",
						"globalpatchername" : "",
						"tags" : ""
					}
,
					"text" : "p voiceRouting"
				}

			}
, 			{
				"box" : 				{
					"id" : "obj-7",
					"maxclass" : "newobj",
					"numinlets" : 13,
					"numoutlets" : 1,
					"outlettype" : [ "" ],
					"patching_rect" : [ 12.0, 90.0, 145.0, 22.0 ],
					"text" : "er1-ui"
				}

			}
 ],
		"lines" : [ 			{
				"patchline" : 				{
					"destination" : [ "obj-2", 0 ],
					"source" : [ "obj-1", 1 ]
				}

			}
, 			{
				"patchline" : 				{
					"destination" : [ "obj-29", 0 ],
					"source" : [ "obj-1", 0 ]
				}

			}
, 			{
				"patchline" : 				{
					"destination" : [ "obj-7", 0 ],
					"source" : [ "obj-11", 0 ]
				}

			}
, 			{
				"patchline" : 				{
					"destination" : [ "obj-11", 0 ],
					"source" : [ "obj-13", 0 ]
				}

			}
, 			{
				"patchline" : 				{
					"destination" : [ "obj-16", 0 ],
					"source" : [ "obj-15", 1 ]
				}

			}
, 			{
				"patchline" : 				{
					"destination" : [ "obj-18", 0 ],
					"source" : [ "obj-16", 1 ]
				}

			}
, 			{
				"patchline" : 				{
					"destination" : [ "obj-27", 3 ],
					"midpoints" : [ 757.5, 212.0, 103.5, 212.0 ],
					"source" : [ "obj-18", 1 ]
				}

			}
, 			{
				"patchline" : 				{
					"destination" : [ "obj-33", 0 ],
					"source" : [ "obj-27", 0 ]
				}

			}
, 			{
				"patchline" : 				{
					"destination" : [ "obj-30", 0 ],
					"source" : [ "obj-29", 0 ]
				}

			}
, 			{
				"patchline" : 				{
					"destination" : [ "obj-46", 0 ],
					"midpoints" : [ 83.875, 211.0, 9.0, 211.0, 9.0, 47.0, 21.5, 47.0 ],
					"source" : [ "obj-29", 1 ]
				}

			}
, 			{
				"patchline" : 				{
					"destination" : [ "obj-27", 2 ],
					"source" : [ "obj-30", 1 ]
				}

			}
, 			{
				"patchline" : 				{
					"destination" : [ "obj-27", 0 ],
					"source" : [ "obj-30", 0 ]
				}

			}
, 			{
				"patchline" : 				{
					"destination" : [ "obj-49", 0 ],
					"source" : [ "obj-35", 0 ]
				}

			}
, 			{
				"patchline" : 				{
					"destination" : [ "obj-50", 0 ],
					"source" : [ "obj-38", 0 ]
				}

			}
, 			{
				"patchline" : 				{
					"destination" : [ "obj-1", 0 ],
					"midpoints" : [ 255.5, 169.0, 147.0, 169.0, 147.0, 125.0, 21.5, 125.0 ],
					"source" : [ "obj-39", 0 ]
				}

			}
, 			{
				"patchline" : 				{
					"destination" : [ "obj-1", 0 ],
					"midpoints" : [ 172.5, 121.0, 21.5, 121.0 ],
					"source" : [ "obj-4", 0 ]
				}

			}
, 			{
				"patchline" : 				{
					"destination" : [ "obj-7", 1 ],
					"source" : [ "obj-46", 12 ]
				}

			}
, 			{
				"patchline" : 				{
					"destination" : [ "obj-7", 0 ],
					"source" : [ "obj-46", 11 ]
				}

			}
, 			{
				"patchline" : 				{
					"destination" : [ "obj-7", 12 ],
					"source" : [ "obj-46", 10 ]
				}

			}
, 			{
				"patchline" : 				{
					"destination" : [ "obj-7", 11 ],
					"source" : [ "obj-46", 9 ]
				}

			}
, 			{
				"patchline" : 				{
					"destination" : [ "obj-7", 10 ],
					"source" : [ "obj-46", 8 ]
				}

			}
, 			{
				"patchline" : 				{
					"destination" : [ "obj-7", 9 ],
					"source" : [ "obj-46", 7 ]
				}

			}
, 			{
				"patchline" : 				{
					"destination" : [ "obj-7", 8 ],
					"source" : [ "obj-46", 6 ]
				}

			}
, 			{
				"patchline" : 				{
					"destination" : [ "obj-7", 7 ],
					"source" : [ "obj-46", 5 ]
				}

			}
, 			{
				"patchline" : 				{
					"destination" : [ "obj-7", 6 ],
					"source" : [ "obj-46", 4 ]
				}

			}
, 			{
				"patchline" : 				{
					"destination" : [ "obj-7", 5 ],
					"source" : [ "obj-46", 3 ]
				}

			}
, 			{
				"patchline" : 				{
					"destination" : [ "obj-7", 4 ],
					"source" : [ "obj-46", 2 ]
				}

			}
, 			{
				"patchline" : 				{
					"destination" : [ "obj-7", 3 ],
					"source" : [ "obj-46", 1 ]
				}

			}
, 			{
				"patchline" : 				{
					"destination" : [ "obj-7", 2 ],
					"source" : [ "obj-46", 0 ]
				}

			}
, 			{
				"patchline" : 				{
					"destination" : [ "obj-38", 1 ],
					"source" : [ "obj-49", 2 ]
				}

			}
, 			{
				"patchline" : 				{
					"destination" : [ "obj-38", 0 ],
					"source" : [ "obj-49", 0 ]
				}

			}
, 			{
				"patchline" : 				{
					"destination" : [ "obj-39", 0 ],
					"source" : [ "obj-50", 0 ]
				}

			}
, 			{
				"patchline" : 				{
					"destination" : [ "obj-1", 0 ],
					"source" : [ "obj-7", 0 ]
				}

			}
 ],
		"parameters" : 		{
			"obj-7::obj-10" : [ "HH OPEN - MUTE[1]", "HH OPEN - MUTE", 0 ],
			"obj-7::obj-104" : [ "none[61]", "Low Boost", 0 ],
			"obj-7::obj-105" : [ "none[63]", "Pan", 0 ],
			"obj-7::obj-111" : [ "none[62]", "Level", 0 ],
			"obj-7::obj-112" : [ "none[64]", "Decay", 0 ],
			"obj-7::obj-117" : [ "none[80]", "Low Boost", 0 ],
			"obj-7::obj-118" : [ "none[92]", "Pan", 0 ],
			"obj-7::obj-12" : [ "CRASH - MUTE[1]", "CRASH - MUTE", 0 ],
			"obj-7::obj-123" : [ "none[65]", "Gain", 0 ],
			"obj-7::obj-124" : [ "none[103]", "Level", 0 ],
			"obj-7::obj-125" : [ "none[131]", "Mod Depth", 0 ],
			"obj-7::obj-128" : [ "AUDIO IN 2 - SOLO[1]", "AUDIO IN 2 - SOLO", 0 ],
			"obj-7::obj-129" : [ "AUDIO IN 2 - MUTE[1]", "AUDIO IN 2 - MUTE", 0 ],
			"obj-7::obj-13" : [ "CLAP - MUTE[1]", "CLAP - MUTE", 0 ],
			"obj-7::obj-130" : [ "none[56]", "Low Boost", 0 ],
			"obj-7::obj-131" : [ "none[59]", "Pan", 0 ],
			"obj-7::obj-132" : [ "none[58]", "Level", 0 ],
			"obj-7::obj-133" : [ "none[57]", "Decay", 0 ],
			"obj-7::obj-134" : [ "none[60]", "Gain", 0 ],
			"obj-7::obj-14" : [ "VCO 1 - SOLO[1]", "VCO 1 - SOLO", 0 ],
			"obj-7::obj-161" : [ "live.button[23]", "live.button", 0 ],
			"obj-7::obj-165" : [ "live.button[25]", "live.button", 0 ],
			"obj-7::obj-171" : [ "none[143]", "Mod Speed", 0 ],
			"obj-7::obj-172" : [ "none[113]", "Decay", 0 ],
			"obj-7::obj-173" : [ "none[125]", "live.tab", 0 ],
			"obj-7::obj-186" : [ "live.button[22]", "live.button", 0 ],
			"obj-7::obj-188" : [ "none[133]", "live.tab", 0 ],
			"obj-7::obj-197" : [ "none[10]", "Mod Speed", 0 ],
			"obj-7::obj-198" : [ "none[126]", "Mod Depth", 0 ],
			"obj-7::obj-202" : [ "none[134]", "Pitch", 0 ],
			"obj-7::obj-204" : [ "none[22]", "Low Boost", 0 ],
			"obj-7::obj-205" : [ "none[21]", "Pan", 0 ],
			"obj-7::obj-206" : [ "none[20]", "Level", 0 ],
			"obj-7::obj-207" : [ "none[19]", "Decay", 0 ],
			"obj-7::obj-208" : [ "none[18]", "live.tab", 0 ],
			"obj-7::obj-211" : [ "none[91]", "live.tab", 0 ],
			"obj-7::obj-212" : [ "none[124]", "Mod Speed", 0 ],
			"obj-7::obj-213" : [ "none[132]", "Mod Depth", 0 ],
			"obj-7::obj-218" : [ "none[142]", "Pitch", 0 ],
			"obj-7::obj-220" : [ "none[82]", "live.tab", 0 ],
			"obj-7::obj-221" : [ "none[30]", "Low Boost", 0 ],
			"obj-7::obj-222" : [ "none[29]", "Pan", 0 ],
			"obj-7::obj-223" : [ "none[28]", "Level", 0 ],
			"obj-7::obj-230" : [ "live.button[24]", "live.button", 0 ],
			"obj-7::obj-235" : [ "none[115]", "live.tab", 0 ],
			"obj-7::obj-236" : [ "none[104]", "Decay", 0 ],
			"obj-7::obj-237" : [ "none[93]", "Level", 0 ],
			"obj-7::obj-238" : [ "none[81]", "Pan", 0 ],
			"obj-7::obj-239" : [ "none[139]", "Low Boost", 0 ],
			"obj-7::obj-244" : [ "none[31]", "Decay", 0 ],
			"obj-7::obj-246" : [ "none[27]", "live.tab", 0 ],
			"obj-7::obj-249" : [ "none[32]", "live.tab", 0 ],
			"obj-7::obj-250" : [ "none[33]", "Mod Speed", 0 ],
			"obj-7::obj-251" : [ "none[34]", "Mod Depth", 0 ],
			"obj-7::obj-252" : [ "none[89]", "Pitch", 0 ],
			"obj-7::obj-254" : [ "GLOBAL - RING MOD 2[1]", "GLOBAL - RING MOD 2", 0 ],
			"obj-7::obj-26" : [ "VCO 2 - SOLO[1]", "VCO 2 - SOLO", 0 ],
			"obj-7::obj-267" : [ "none[40]", "Pitch", 0 ],
			"obj-7::obj-268" : [ "none[38]", "Decay", 0 ],
			"obj-7::obj-269" : [ "none[39]", "Level", 0 ],
			"obj-7::obj-27" : [ "VCO 3 - SOLO[1]", "VCO 3 - SOLO", 0 ],
			"obj-7::obj-270" : [ "none[37]", "Pan", 0 ],
			"obj-7::obj-271" : [ "none[36]", "Low Boost", 0 ],
			"obj-7::obj-272" : [ "none[41]", "Low Boost", 0 ],
			"obj-7::obj-273" : [ "none[42]", "Pan", 0 ],
			"obj-7::obj-274" : [ "none[43]", "Level", 0 ],
			"obj-7::obj-275" : [ "none[44]", "Decay", 0 ],
			"obj-7::obj-276" : [ "none[45]", "Pitch", 0 ],
			"obj-7::obj-278" : [ "none[51]", "Low Boost", 0 ],
			"obj-7::obj-279" : [ "none[52]", "Pan", 0 ],
			"obj-7::obj-28" : [ "VCO 4 - SOLO[1]", "VCO 4 - SOLO", 0 ],
			"obj-7::obj-280" : [ "none[53]", "Level", 0 ],
			"obj-7::obj-281" : [ "none[54]", "Decay", 0 ],
			"obj-7::obj-282" : [ "none[55]", "Pitch", 0 ],
			"obj-7::obj-284" : [ "none[46]", "Low Boost", 0 ],
			"obj-7::obj-285" : [ "none[49]", "Pan", 0 ],
			"obj-7::obj-286" : [ "none[48]", "Level", 0 ],
			"obj-7::obj-287" : [ "none[47]", "Decay", 0 ],
			"obj-7::obj-288" : [ "none[50]", "Pitch", 0 ],
			"obj-7::obj-3" : [ "VCO 4 - MUTE[1]", "VCO 4 - MUTE", 0 ],
			"obj-7::obj-35" : [ "HH CLOSE - SOLO[1]", "HH CLOSE - SOLO", 0 ],
			"obj-7::obj-36" : [ "HH OPEN - SOLO[1]", "HH OPEN - SOLO", 0 ],
			"obj-7::obj-37" : [ "CRASH - SOLO[1]", "CRASH - SOLO", 0 ],
			"obj-7::obj-38" : [ "CLAP - SOLO[1]", "CLAP - SOLO", 0 ],
			"obj-7::obj-41" : [ "GLOBAL - RING MOD 1[1]", "GLOBAL - RING MOD 1", 0 ],
			"obj-7::obj-43" : [ "live.button[26]", "live.button", 0 ],
			"obj-7::obj-44" : [ "live.button[17]", "live.button", 0 ],
			"obj-7::obj-45" : [ "live.button[18]", "live.button", 0 ],
			"obj-7::obj-47" : [ "live.button[19]", "live.button", 0 ],
			"obj-7::obj-48" : [ "live.button[20]", "live.button", 0 ],
			"obj-7::obj-49" : [ "live.button[21]", "live.button", 0 ],
			"obj-7::obj-5" : [ "VCO 3 - MUTE[1]", "VCO 3 - MUTE", 0 ],
			"obj-7::obj-54" : [ "none[110]", "Time", 0 ],
			"obj-7::obj-55" : [ "none[121]", "Depth", 0 ],
			"obj-7::obj-6" : [ "VCO 2 - MUTE[1]", "VCO 2 - MUTE", 0 ],
			"obj-7::obj-7" : [ "VCO 1 - MUTE[1]", "VCO 1 - MUTE", 0 ],
			"obj-7::obj-8" : [ "none[83]", "Pitch", 0 ],
			"obj-7::obj-9" : [ "HH CLOSE - MUTE[1]", "HH CLOSE - MUTE", 0 ],
			"obj-7::obj-97" : [ "AUDIO IN 1 - SOLO[1]", "AUDIO IN 1 - SOLO", 0 ],
			"obj-7::obj-98" : [ "AUDIO IN 1 - MUTE[1]", "AUDIO IN 1 - MUTE", 0 ],
			"parameterbanks" : 			{
				"0" : 				{
					"index" : 0,
					"name" : "",
					"parameters" : [ "-", "-", "-", "-", "-", "-", "-", "-" ]
				}

			}
,
			"inherited_shortname" : 1
		}
,
		"dependency_cache" : [ 			{
				"name" : "down.svg",
				"bootpath" : "C74:/media/max/picts/m4l-picts",
				"type" : "svg",
				"implicit" : 1
			}
, 			{
				"name" : "er1-ui.maxpat",
				"bootpath" : "~/Code/Max/ER-1-controller",
				"patcherrelativepath" : ".",
				"type" : "JSON",
				"implicit" : 1
			}
, 			{
				"name" : "fit_jweb_to_bounds.js",
				"bootpath" : "C74:/packages/Node for Max/patchers/debug-monitor",
				"type" : "TEXT",
				"implicit" : 1
			}
, 			{
				"name" : "main.js",
				"bootpath" : "~/Code/Max/ER-1-controller",
				"patcherrelativepath" : ".",
				"type" : "TEXT",
				"implicit" : 1
			}
, 			{
				"name" : "n4m.monitor.maxpat",
				"bootpath" : "C74:/packages/Node for Max/patchers/debug-monitor",
				"type" : "JSON",
				"implicit" : 1
			}
, 			{
				"name" : "noise.png",
				"bootpath" : "~/Code/Max/ER-1-controller/assets",
				"patcherrelativepath" : "./assets",
				"type" : "PNG",
				"implicit" : 1
			}
, 			{
				"name" : "random.svg",
				"bootpath" : "C74:/media/max/picts/m4l-picts",
				"type" : "svg",
				"implicit" : 1
			}
, 			{
				"name" : "resize_n4m_monitor_patcher.js",
				"bootpath" : "C74:/packages/Node for Max/patchers/debug-monitor",
				"type" : "TEXT",
				"implicit" : 1
			}
, 			{
				"name" : "saw.svg",
				"bootpath" : "C74:/media/max/picts/m4l-picts",
				"type" : "svg",
				"implicit" : 1
			}
, 			{
				"name" : "sine.svg",
				"bootpath" : "C74:/media/max/picts/m4l-picts",
				"type" : "svg",
				"implicit" : 1
			}
, 			{
				"name" : "square.svg",
				"bootpath" : "C74:/media/max/picts/m4l-picts",
				"type" : "svg",
				"implicit" : 1
			}
, 			{
				"name" : "updown.svg",
				"bootpath" : "C74:/media/max/picts/m4l-picts",
				"type" : "svg",
				"implicit" : 1
			}
 ],
		"autosave" : 0
	}

}
